<svg width="243" height="48" viewBox="0 0 243 48" fill="none" xmlns="http://www.w3.org/2000/svg">
<g style="mix-blend-mode:difference">
<path d="M191.08 23.579H187.182V47.0352H191.08V23.579Z" fill="#000"/>
<path d="M187.182 43.6823V47.0361H200.675V43.6823H187.182Z" fill="#000"/>
<path d="M179.051 47.0352H174.958L173.086 42.8465L168.613 32.7946L164.141 42.8475L162.269 47.0361H158.175L160.047 42.8475L168.613 23.579L177.181 42.8475L179.051 47.0352Z" fill="#000"/>
<path d="M99.8983 47.0361H95.7751L93.8894 42.8476L89.3835 32.7961L84.8776 42.8467L82.9919 47.0352H78.8678L80.7534 42.8467L89.3826 23.579L98.0136 42.8467L99.8983 47.0361Z" fill="#000"/>
<path d="M121.347 29.8713H124.66C124.56 26.2249 121.336 23.579 116.711 23.579C112.142 23.579 108.64 26.1916 108.64 30.1159C108.64 33.2843 110.908 35.1408 114.566 36.1302L117.256 36.864C119.691 37.5088 121.57 38.3092 121.57 40.3325C121.57 42.5559 119.446 44.0234 116.522 44.0234C113.877 44.0234 111.675 42.845 111.475 40.3658H108.029C108.251 44.4903 111.442 47.0361 116.545 47.0361C121.892 47.0361 124.971 44.2235 124.971 40.3658C124.971 36.2636 121.314 34.6739 118.423 33.9624L116.2 33.3843C114.421 32.9285 112.053 32.0947 112.064 29.9158C112.064 27.9814 113.832 26.5473 116.634 26.5473C119.246 26.5473 121.103 27.7702 121.347 29.8713Z" fill="#000"/>
<path d="M146.42 29.8713H149.733C149.633 26.2249 146.409 23.579 141.784 23.579C137.215 23.579 133.713 26.1916 133.713 30.1159C133.713 33.2843 135.981 35.1408 139.639 36.1302L142.329 36.864C144.764 37.5088 146.643 38.3092 146.643 40.3325C146.643 42.5559 144.519 44.0234 141.596 44.0234C138.95 44.0234 136.748 42.845 136.548 40.3658H133.102C133.324 44.4903 136.515 47.0361 141.618 47.0361C146.965 47.0361 150.044 44.2235 150.044 40.3658C150.044 36.2636 146.387 34.6739 143.497 33.9624L141.273 33.3843C139.494 32.9285 137.126 32.0947 137.138 29.9158C137.138 27.9814 138.905 26.5473 141.707 26.5473C144.319 26.5473 146.176 27.7702 146.42 29.8713Z" fill="#000"/>
<path d="M47.159 47.158L29.2705 -1.3991e-05L42.048 -1.28739e-05L58.4032 47.158L47.159 47.158Z" fill="#000"/>
<path d="M17.8885 47.158L-7.32141e-06 -1.3991e-05L12.7775 -1.28739e-05L29.1327 47.158L17.8885 47.158Z" fill="#000"/>
<path d="M68.4944 0.173975C64.1223 0.173975 60.578 3.71828 60.578 8.0904C60.578 12.4625 64.1223 16.0068 68.4944 16.0068C72.8665 16.0068 76.4108 12.4625 76.4108 8.09041C76.4108 3.71828 72.8665 0.173976 68.4944 0.173975Z" fill="#000"/>
<rect x="238.656" y="23.579" width="4.3439" height="23.4571" fill="#000"/>
<path d="M226.182 47.0361H230.525L213.15 23.579L208.806 42.7285V46.8913H212.875V42.7285L213.15 29.2261L226.182 47.0361Z" fill="#000"/>
<path d="M226.182 23.579H230.525L230.525 47.0361H226.182L226.182 23.579Z" fill="#000"/>
<path d="M208.806 23.579H213.15L213.15 47.0361H208.806V23.579Z" fill="#000"/>
</g>
</svg>
